<?xml version="1.0" standalone="no"?>
<!DOCTYPE svg PUBLIC "-//W3C//DTD SVG 20010904//EN"
 "http://www.w3.org/TR/2001/REC-SVG-20010904/DTD/svg10.dtd">
<svg version="1.0" xmlns="http://www.w3.org/2000/svg"
 width="1200.000000pt" height="1200.000000pt" viewBox="0 0 1200.000000 1200.000000"
 preserveAspectRatio="xMidYMid meet">
<metadata>
Created by potrace 1.14, written by Peter Selinger 2001-2017
</metadata>
<g transform="translate(0.000000,1200.000000) scale(0.100000,-0.100000)"
fill="#000000" stroke="none">
<path d="M5705 11934 c-1082 -59 -2110 -400 -3005 -997 -168 -112 -356 -252
-525 -393 -167 -139 -580 -552 -719 -719 -308 -370 -541 -724 -751 -1140 -348
-687 -542 -1360 -622 -2155 -24 -245 -24 -815 0 -1060 80 -795 274 -1468 622
-2155 210 -416 443 -770 751 -1140 139 -167 552 -580 719 -719 370 -308 724
-541 1140 -751 687 -348 1360 -542 2155 -622 245 -24 815 -24 1060 0 795 80
1468 274 2155 622 416 210 770 443 1140 751 167 139 580 552 719 719 308 370
541 724 751 1140 348 687 542 1360 622 2155 24 245 24 815 0 1060 -80 795
-274 1468 -622 2155 -210 416 -443 770 -751 1140 -139 167 -552 580 -719 719
-370 308 -724 541 -1140 751 -684 347 -1370 545 -2145 620 -158 15 -681 27
-835 19z m493 -2395 c360 -39 713 -187 996 -418 103 -84 260 -252 338 -362 84
-117 195 -331 241 -465 168 -485 135 -1010 -93 -1464 -94 -187 -182 -311 -335
-468 -456 -472 -1112 -668 -1754 -526 -153 34 -260 73 -416 149 -944 461
-1326 1603 -849 2536 354 694 1104 1102 1872 1018z m1567 -4354 l0 -160 -579
-5 -579 -5 -275 -1265 c-175 -808 -279 -1271 -289 -1282 -9 -10 -28 -18 -43
-18 -15 0 -34 8 -43 18 -10 11 -114 472 -290 1282 l-274 1265 -579 5 -579 5
-3 150 c-1 82 0 155 2 162 4 11 332 13 1768 11 l1763 -3 0 -160z"/>
<path d="M6175 8970 l-140 -140 70 -70 69 -70 -72 -73 -72 -72 140 -140 140
-140 90 90 c109 108 144 160 166 245 38 149 -2 261 -147 414 -50 53 -94 96
-98 96 -3 0 -69 -63 -146 -140z"/>
<path d="M6955 8370 l-140 -140 70 -70 69 -70 -74 -75 -75 -75 140 -140 140
-141 105 108 c113 116 142 162 159 259 25 137 -19 244 -158 387 l-96 98 -140
-141z"/>
<path d="M6175 7970 l-140 -140 70 -70 69 -70 -72 -73 -72 -72 140 -140 141
-140 108 110 c132 135 155 181 155 315 0 133 -23 180 -153 313 l-106 108 -140
-141z"/>
<path d="M6955 7370 l-140 -140 70 -70 69 -70 -74 -75 -75 -75 140 -140 140
-140 97 97 c144 144 191 250 168 386 -16 100 -50 158 -157 268 l-98 100 -140
-141z"/>
<path d="M6175 6970 l-140 -140 70 -70 69 -70 -72 -73 -72 -72 140 -140 141
-140 108 110 c131 134 154 180 155 315 0 133 -23 180 -153 313 l-106 108 -140
-141z"/>
</g>
</svg>
