<?xml version="1.0" standalone="no"?>
<!DOCTYPE svg PUBLIC "-//W3C//DTD SVG 20010904//EN"
 "http://www.w3.org/TR/2001/REC-SVG-20010904/DTD/svg10.dtd">
<svg version="1.0" xmlns="http://www.w3.org/2000/svg"
 width="1920.000000pt" height="1920.000000pt" viewBox="0 0 1920.000000 1920.000000"
 preserveAspectRatio="xMidYMid meet">
<metadata>
Created by potrace 1.14, written by Peter Selinger 2001-2017
</metadata>
<g transform="translate(0.000000,1920.000000) scale(0.100000,-0.100000)"
fill="#000000" stroke="none">
<path d="M6386 15761 c-3 -4 -27 -9 -54 -9 -50 -2 -207 -37 -297 -67 -130 -43
-387 -161 -435 -199 -8 -7 -27 -18 -41 -25 -51 -25 -216 -155 -312 -244 -101
-96 -228 -241 -314 -362 -98 -138 -215 -375 -246 -500 -33 -129 -52 -223 -67
-322 -14 -100 -14 -6407 0 -6518 6 -44 15 -116 21 -160 11 -94 28 -182 39
-210 5 -11 16 -49 25 -85 28 -106 119 -305 190 -412 225 -344 443 -552 760
-729 147 -82 382 -171 535 -203 163 -34 263 -37 1575 -39 l1310 -2 2 -55 c1
-30 4 -203 8 -385 7 -362 7 -362 19 -420 11 -49 173 -503 212 -591 7 -16 38
-93 68 -170 138 -349 194 -474 213 -474 12 0 99 169 163 315 56 131 267 674
306 790 l43 130 11 295 c5 162 10 354 10 427 0 72 4 134 9 137 5 3 611 6 1347
6 810 1 1361 5 1394 11 30 5 84 14 120 20 260 43 572 182 793 352 245 188 464
450 596 715 129 257 174 416 201 701 7 67 9 1270 7 3355 -2 2646 -5 3259 -16
3296 -7 25 -14 50 -15 55 -2 6 -6 24 -10 40 -4 17 -11 41 -16 55 -4 14 -13 45
-20 70 -35 127 -128 330 -213 460 -75 117 -240 311 -343 405 -269 244 -541
393 -920 506 -17 5 -42 9 -55 9 -14 0 -29 4 -35 9 -5 5 -34 12 -64 16 -81 11
-6498 17 -6504 6z m6344 -466 c227 -26 452 -115 695 -272 161 -105 366 -321
490 -518 80 -127 149 -285 174 -400 15 -71 23 -107 29 -130 3 -11 7 -1440 9
-3175 3 -2253 0 -3184 -7 -3255 -6 -55 -14 -124 -17 -153 -3 -29 -9 -55 -14
-58 -5 -3 -9 -15 -9 -28 0 -72 -95 -278 -197 -426 -244 -353 -513 -564 -863
-678 -218 -71 -123 -67 -1560 -67 l-1295 0 0 125 0 125 1300 6 c949 4 1311 9
1343 17 23 7 59 16 80 21 284 66 603 306 790 594 51 79 119 221 128 266 l6 31
-1788 2 -1789 3 4 80 c1 44 6 116 9 160 l7 80 1808 3 c1192 1 1807 5 1808 12
3 69 -1 261 -5 269 -5 7 -507 9 -1604 5 -1528 -5 -1914 -1 -1943 17 -11 6 -11
17 0 61 25 103 69 252 86 293 7 17 20 46 28 65 21 51 208 298 325 429 68 76
102 123 102 138 0 31 -13 50 -147 216 -103 128 -124 167 -89 167 21 0 278 131
346 176 198 133 296 211 397 321 210 226 314 371 422 590 80 163 140 315 181
463 6 25 16 55 21 68 5 13 9 34 9 47 0 14 5 45 10 70 6 25 14 65 20 89 15 68
23 478 11 591 -23 232 -109 532 -223 785 -35 76 -145 266 -200 343 -124 175
-372 429 -524 539 -256 183 -595 344 -859 408 -27 6 -59 16 -70 20 -11 5 -38
11 -60 14 -22 3 -65 10 -95 15 -194 37 -575 40 -783 7 -96 -15 -398 -92 -452
-115 -11 -5 -42 -17 -70 -26 -92 -32 -339 -161 -458 -239 -201 -132 -369 -281
-527 -465 -116 -136 -176 -220 -248 -348 -231 -405 -321 -793 -299 -1293 10
-236 12 -260 19 -280 3 -8 11 -49 18 -90 38 -233 142 -494 306 -770 248 -417
585 -712 1057 -925 20 -10 37 -20 37 -24 0 -3 -50 -64 -111 -136 -115 -135
-159 -196 -159 -217 0 -17 48 -77 179 -222 209 -232 255 -300 299 -441 36
-118 70 -257 74 -306 l3 -34 -1765 0 c-971 0 -1771 -2 -1777 -3 -10 -1 -13
-38 -13 -142 l0 -140 1809 0 1808 0 8 -117 c4 -65 8 -138 8 -163 l2 -45 -1785
-2 c-1772 -3 -1785 -3 -1788 -22 -2 -11 15 -58 36 -105 152 -324 450 -607 762
-723 117 -44 174 -61 245 -73 53 -9 336 -12 1135 -12 586 0 1151 -2 1255 -6
l190 -7 3 -100 c2 -55 0 -110 -3 -123 l-6 -23 -1282 4 -1282 3 -109 27 c-235
58 -345 105 -526 226 -214 142 -442 393 -560 619 -53 100 -120 267 -120 298 0
11 -4 24 -9 30 -5 5 -17 59 -27 119 -18 106 -19 224 -18 3300 1 2158 4 3209
11 3250 47 272 203 557 430 788 145 147 283 248 468 340 134 66 196 91 300
118 44 11 96 25 115 31 19 5 107 13 195 18 184 9 6042 5 6125 -5z m-2845
-1663 c226 -31 444 -102 685 -222 98 -48 107 -53 219 -129 141 -94 222 -161
360 -295 216 -212 370 -434 465 -671 16 -38 32 -79 37 -90 87 -200 148 -567
136 -814 -10 -187 -80 -508 -142 -646 -7 -16 -27 -64 -44 -105 -126 -306 -396
-633 -686 -832 -155 -107 -198 -133 -235 -143 -22 -6 -20 -2 16 36 39 41 90
126 81 135 -6 6 -172 -61 -220 -89 -23 -14 -88 -67 -142 -118 -110 -102 -160
-129 -270 -148 -38 -7 -80 -14 -92 -17 -13 -2 -23 0 -23 4 0 10 212 180 235
188 8 4 15 11 15 16 0 5 9 23 20 38 18 26 19 30 4 44 -22 23 -117 20 -195 -5
-93 -30 -152 -72 -222 -158 -73 -90 -80 -96 -132 -121 -30 -15 -62 -20 -129
-20 -138 0 -155 8 -281 135 -98 97 -119 113 -180 137 -159 62 -314 66 -290 7
6 -12 141 -117 263 -203 118 -84 116 -87 -30 -57 -178 36 -208 51 -333 174
-112 110 -193 158 -289 172 -61 10 -60 -3 9 -85 83 -99 87 -109 29 -75 -61 35
-241 155 -311 207 -143 105 -329 316 -486 551 -125 188 -227 464 -267 722 -26
170 -32 260 -26 420 11 312 49 497 153 740 95 223 169 341 331 528 256 296
563 513 912 647 47 17 94 36 105 41 29 12 221 66 283 80 166 35 488 45 667 21z
m-887 -4513 c137 -40 250 -50 573 -50 169 0 329 3 355 6 27 3 76 7 109 10 94
6 192 24 233 41 l37 15 29 -33 c15 -18 54 -62 85 -97 66 -75 67 -77 46 -85
-12 -4 -20 2 -28 24 -7 18 -19 30 -29 30 -23 0 -23 -19 0 -36 16 -13 16 -13 0
-14 -11 0 -18 -8 -18 -20 0 -21 16 -28 22 -8 2 6 10 9 17 7 18 -6 -179 -218
-197 -213 -7 2 -10 -1 -7 -6 6 -10 -95 -133 -103 -125 -8 8 10 45 23 45 8 0
17 9 20 20 3 11 10 20 15 20 7 0 7 34 1 99 0 7 -7 11 -16 7 -8 -3 -15 -1 -15
4 0 14 -27 12 -33 -2 -4 -9 -6 -9 -6 -1 -1 12 53 43 74 43 20 0 66 41 59 52
-4 6 -22 7 -43 4 -160 -29 -1049 -42 -1145 -18 -27 7 -51 10 -55 6 -15 -15
160 -118 191 -113 7 1 31 -2 53 -9 22 -6 72 -14 110 -18 92 -9 105 -14 157
-68 36 -36 48 -43 58 -33 10 10 11 8 6 -8 -4 -15 5 -32 32 -62 53 -58 75 -111
74 -183 0 -14 4 -30 9 -36 5 -6 11 -33 14 -60 2 -27 7 -59 10 -70 4 -12 2 -24
-3 -28 -11 -7 -4 -54 10 -62 5 -3 4 -12 -3 -20 -10 -12 -7 -20 11 -39 l23 -25
-21 0 c-26 0 -29 -15 -4 -25 15 -6 15 -7 1 -15 -13 -8 -14 -18 -6 -72 11 -75
15 -406 6 -603 -4 -77 -4 -144 -2 -148 3 -5 7 -34 9 -65 4 -56 19 -89 28 -61
2 8 12 180 21 384 9 203 19 374 23 379 12 20 20 101 11 112 -6 7 -4 16 6 24
23 19 19 50 -7 51 -21 1 -21 1 4 10 21 8 28 19 33 52 4 23 11 48 16 57 4 8 12
34 17 57 8 34 7 43 -6 48 -16 6 -8 20 11 20 6 0 14 9 17 20 3 11 22 46 43 78
20 31 37 62 37 67 0 6 7 10 15 10 8 0 15 9 15 20 0 11 5 20 11 20 5 0 16 15
24 34 14 34 35 56 35 38 0 -4 -18 -51 -40 -103 -54 -125 -76 -204 -90 -324 -6
-55 -15 -116 -20 -135 -5 -19 -12 -84 -15 -145 -4 -60 -10 -121 -15 -135 -5
-14 -11 -61 -14 -105 -3 -44 -10 -134 -16 -200 -5 -66 -12 -181 -15 -255 -4
-74 -10 -193 -14 -265 -5 -71 -9 -186 -10 -255 -1 -68 -4 -127 -7 -131 -2 -4
-13 -249 -24 -545 -11 -297 -24 -609 -29 -694 -5 -85 -7 -158 -5 -162 4 -6 -6
-54 -41 -198 -39 -158 -117 -410 -127 -410 -14 0 -104 259 -137 395 -12 50
-26 108 -32 130 -5 22 -11 101 -13 175 -3 74 -7 187 -10 250 -3 63 -10 241
-16 395 -17 459 -20 528 -24 570 -2 22 -7 135 -10 250 -4 116 -11 260 -16 320
-5 61 -8 117 -8 125 1 24 -22 308 -32 395 -11 85 -19 165 -26 255 -3 45 -35
285 -48 365 -37 222 -58 300 -104 380 -62 107 -185 262 -329 416 -35 36 -63
72 -63 79 0 25 168 213 182 204 5 -3 39 -14 76 -25z m1092 -368 c0 -11 -31
-24 -39 -16 -3 3 1 10 9 15 19 12 30 12 30 1z m70 -41 c0 -22 -4 -28 -15 -24
-8 4 -15 17 -15 30 0 15 6 24 15 24 10 0 15 -10 15 -30z m-160 10 c0 -5 -5
-10 -11 -10 -5 0 -7 5 -4 10 3 6 8 10 11 10 2 0 4 -4 4 -10z m105 0 c3 -5 1
-10 -4 -10 -6 0 -11 5 -11 10 0 6 2 10 4 10 3 0 8 -4 11 -10z m-470 -40 c-3
-5 -13 -10 -21 -10 -8 0 -14 5 -14 10 0 6 9 10 21 10 11 0 17 -4 14 -10z m255
-20 c0 -5 -7 -10 -15 -10 -8 0 -15 5 -15 10 0 6 7 10 15 10 8 0 15 -4 15 -10z
m-230 -38 c0 -4 -5 -13 -12 -20 -9 -9 -9 -15 0 -24 14 -14 16 -28 3 -28 -14 0
-23 37 -16 60 6 19 25 28 25 12z m454 -87 c-4 -8 -8 -15 -10 -15 -2 0 -4 7 -4
15 0 8 4 15 10 15 5 0 7 -7 4 -15z m-184 -231 c0 -3 -7 -12 -15 -20 -16 -17
-18 -14 -9 10 6 15 24 23 24 10z m-190 -164 c0 -5 -4 -10 -10 -10 -5 0 -10 5
-10 10 0 6 5 10 10 10 6 0 10 -4 10 -10z m127 -36 c-9 -9 -28 6 -21 18 4 6 10
6 17 -1 6 -6 8 -13 4 -17z m-47 -164 c0 -5 -2 -10 -4 -10 -3 0 -8 5 -11 10 -3
6 -1 10 4 10 6 0 11 -4 11 -10z m-40 -35 c0 -8 -9 -15 -20 -15 -11 0 -20 7
-20 15 0 8 9 15 20 15 11 0 20 -7 20 -15z m-1585 -1065 c-158 -9 -774 -10
-945 -1 -80 5 109 8 465 8 330 0 546 -4 480 -7z m228 3 c-7 -2 -21 -2 -30 0
-10 3 -4 5 12 5 17 0 24 -2 18 -5z m3335 0 c-27 -2 -69 -2 -95 0 -27 2 -5 3
47 3 52 0 74 -1 48 -3z m100 0 c-10 -2 -26 -2 -35 0 -10 3 -2 5 17 5 19 0 27
-2 18 -5z m120 0 c-15 -2 -42 -2 -60 0 -18 2 -6 4 27 4 33 0 48 -2 33 -4z"/>
<path d="M12655 12204 c-14 -15 -16 -109 -15 -1018 1 -550 1 -1175 1 -1388
l-1 -388 -49 0 c-67 0 -110 -17 -154 -62 -21 -21 -40 -38 -42 -38 -2 0 -21 11
-41 25 -28 19 -50 25 -89 25 -69 0 -117 -21 -179 -79 -59 -56 -89 -72 -169
-96 -32 -9 -57 -18 -55 -20 4 -4 501 -15 666 -15 l112 0 0 -64 0 -63 -92 -7
c-50 -3 -206 -6 -347 -6 -274 0 -303 -5 -309 -49 -5 -30 23 -59 62 -65 17 -3
455 -8 974 -11 l942 -5 0 70 0 70 -550 0 -550 0 0 64 c0 49 4 65 16 70 9 3
256 6 550 6 l534 0 0 353 c0 193 3 369 6 390 l7 37 -41 0 c-22 0 -72 -11 -111
-24 -133 -45 -222 -120 -277 -236 -16 -33 -34 -60 -39 -60 -6 0 -26 11 -45 24
-122 82 -331 46 -448 -78 -44 -46 -59 -75 -97 -185 -3 -7 -12 -10 -21 -7 -9 3
-20 6 -26 6 -7 0 -9 333 -6 1060 4 1026 5 1060 23 1080 57 63 168 76 306 35
186 -54 311 -16 413 125 19 27 31 52 26 55 -5 3 -37 -3 -71 -14 -53 -18 -122
-21 -137 -6 -2 2 32 39 76 82 45 45 91 102 106 131 26 51 46 142 32 142 -4 0
-26 -15 -49 -33 -63 -49 -114 -69 -194 -75 -98 -6 -143 7 -275 83 -108 62
-116 65 -180 65 l-68 0 0 33 c0 50 -24 77 -70 77 -22 0 -45 -7 -55 -16z"/>
<path d="M5348 9934 c-5 -4 -8 -177 -8 -384 l0 -377 38 -7 c54 -9 1882 -7
1882 2 -1 4 -22 17 -49 30 -26 12 -73 47 -104 77 -74 73 -132 98 -214 93 -55
-3 -67 -8 -99 -38 l-35 -35 -31 38 c-47 58 -99 80 -190 81 -72 1 -78 -1 -107
-28 -17 -16 -32 -28 -34 -25 -2 2 -14 29 -26 59 -49 116 -110 183 -210 233
-106 52 -236 49 -323 -9 -21 -13 -39 -24 -42 -24 -2 0 -15 24 -30 54 -14 29
-45 74 -67 100 -39 44 -147 126 -167 126 -5 0 -23 7 -40 16 -36 18 -133 30
-144 18z"/>
<path d="M5343 8994 c-2 -6 -3 -33 -1 -60 3 -43 6 -49 23 -46 11 2 448 5 970
8 812 4 953 7 973 20 28 18 28 45 1 70 -20 18 -51 19 -991 19 -711 0 -972 -3
-975 -11z"/>
<path d="M13846 8801 c-4 -7 -5 -15 -2 -18 9 -9 19 4 14 18 -4 11 -6 11 -12 0z"/>
<path d="M12232 8699 c-652 -6 -704 -8 -723 -24 -26 -24 -24 -61 4 -80 20 -13
165 -15 1188 -16 l1164 -1 0 63 0 63 -465 0 c-256 1 -781 -2 -1168 -5z"/>
<path d="M5347 8693 c-4 -3 -7 -33 -7 -65 l0 -58 388 5 c213 3 738 7 1167 9
429 3 788 7 798 11 10 4 23 17 29 28 9 17 7 24 -14 42 -25 21 -31 22 -604 28
-747 9 -1749 9 -1757 0z"/>
<path d="M5342 8293 c2 -47 7 -68 16 -67 6 1 680 2 1496 3 l1483 1 27 26 c32
33 33 54 3 82 l-23 22 -1503 0 -1502 0 3 -67z"/>
<path d="M10865 8348 c-48 -26 -58 -65 -25 -98 20 -20 33 -20 1524 -20 l1504
0 4 53 c2 28 2 58 0 65 -6 16 -2976 17 -3007 0z"/>
<path d="M11590 12003 c1 -16 10 -68 21 -118 11 -49 23 -102 26 -118 9 -47 23
-41 23 11 0 56 -27 207 -41 234 -14 27 -29 22 -29 -9z"/>
<path d="M9823 11978 c-6 -7 -13 -22 -16 -33 -3 -11 -15 -46 -27 -79 -27 -74
-23 -87 27 -79 21 3 42 10 48 14 5 5 13 9 17 9 12 0 10 -48 -2 -55 -5 -3 -10
-14 -10 -23 0 -10 -12 -35 -26 -56 l-26 -38 23 -24 c12 -13 28 -24 34 -24 20
0 56 46 111 142 l53 93 -67 66 c-65 63 -109 99 -123 99 -4 0 -11 -6 -16 -12z"/>
<path d="M8655 11965 c-62 -22 -102 -72 -110 -136 -3 -30 -5 -205 -3 -390 3
-378 -1 -359 82 -401 95 -49 200 -61 292 -33 93 27 123 83 124 223 0 85 -2 86
-95 87 l-60 0 -5 -75 -5 -75 -73 -3 c-46 -2 -79 2 -88 9 -11 9 -14 65 -14 310
0 346 -5 329 94 329 83 0 100 -16 90 -89 -10 -73 -1 -80 83 -67 l68 11 3 80
c5 132 -26 187 -121 219 -60 20 -207 21 -262 1z"/>
<path d="M9522 11968 c-12 -15 -92 -187 -92 -198 0 -4 -11 -23 -25 -43 -13
-20 -30 -55 -38 -77 -7 -23 -18 -40 -23 -38 -5 2 -9 81 -9 178 l0 175 -80 -1
-80 -1 -3 -476 -2 -477 25 -6 c14 -3 31 -4 39 -1 7 3 31 2 52 -3 21 -5 40 -7
42 -5 2 2 3 75 3 162 -1 142 1 161 18 183 l20 25 36 -80 c20 -44 44 -96 52
-115 77 -172 86 -183 133 -170 14 4 55 5 93 2 37 -3 67 -2 67 2 0 4 -17 33
-38 64 -77 115 -242 409 -242 431 0 5 36 83 80 174 98 203 130 275 130 293 0
19 -143 20 -158 2z"/>
<path d="M10716 11970 c-1 -3 3 -223 9 -490 l10 -485 75 4 c41 2 78 5 82 7 3
2 4 117 1 254 -7 272 -1 300 37 183 11 -38 36 -115 55 -173 18 -58 43 -138 55
-178 12 -40 28 -76 36 -79 8 -3 38 -2 66 3 l52 9 27 105 c53 208 90 344 94
349 8 8 9 -5 13 -286 l2 -163 24 0 c36 0 129 22 145 34 11 8 12 86 6 446 -4
239 -9 443 -12 453 -4 16 -15 17 -96 15 l-91 -3 -12 -40 c-6 -22 -35 -116 -64
-210 -29 -93 -58 -190 -65 -215 -16 -59 -46 -128 -50 -115 -41 132 -99 306
-111 334 -9 20 -20 45 -24 56 -4 11 -20 46 -34 77 -14 32 -28 69 -32 82 -6 24
-9 25 -101 28 -52 2 -96 1 -97 -2z"/>
<path d="M7634 11961 c-2 -2 -4 -197 -4 -431 0 -333 3 -430 13 -438 17 -14
146 -56 152 -50 3 3 1 37 -5 75 -6 38 -10 101 -8 139 l3 69 151 5 c106 4 156
9 167 19 29 24 37 82 37 287 0 227 -9 263 -74 303 -32 20 -50 22 -231 24 -108
1 -199 0 -201 -2z m341 -316 l0 -150 -95 0 -95 0 -3 140 c-1 76 0 145 3 152 3
11 27 13 97 11 l93 -3 0 -150z"/>
<path d="M8257 11963 c-4 -3 -7 -219 -7 -478 l0 -472 82 -6 c46 -3 83 -5 84
-4 0 1 -1 219 -4 485 l-4 482 -73 0 c-39 0 -75 -3 -78 -7z"/>
<path d="M10107 11958 c-10 -28 6 -948 17 -956 6 -5 115 -6 241 -3 l230 6 0
75 0 75 -157 3 c-134 2 -157 5 -160 18 -2 9 -2 65 0 125 l3 109 79 0 c43 0 81
3 83 8 3 4 8 40 12 80 l7 72 -90 0 c-63 0 -91 4 -94 13 -3 6 -6 55 -7 108 -2
78 0 98 14 109 12 10 51 12 186 7 l170 -6 -3 82 -3 82 -261 3 c-206 2 -263 0
-267 -10z"/>
<path d="M11622 11525 c-15 -33 -17 -311 -2 -320 6 -4 17 10 26 30 11 28 15
68 13 161 -2 134 -15 178 -37 129z"/>
<path d="M11516 10858 c-23 -35 -78 -205 -73 -225 4 -16 5 -16 11 2 4 11 11
29 16 40 38 92 71 197 65 203 -2 2 -10 -7 -19 -20z"/>
<path d="M11288 10788 c-9 -7 -29 -40 -43 -73 -15 -33 -45 -97 -67 -143 -22
-46 -37 -86 -34 -89 7 -8 124 73 154 106 37 40 89 181 76 203 -8 12 -68 10
-86 -4z"/>
<path d="M10855 10704 c-78 -29 -155 -128 -155 -200 0 -44 8 -74 19 -74 3 0
14 15 24 33 10 17 32 42 50 55 17 12 52 40 75 62 24 22 50 40 58 40 8 0 14 7
14 16 0 11 6 13 19 9 11 -3 22 -1 26 5 3 5 15 10 26 10 30 0 22 27 -13 44 -38
19 -90 19 -143 0z"/>
<path d="M10735 10360 c3 -5 8 -10 11 -10 2 0 4 5 4 10 0 6 -5 10 -11 10 -5 0
-7 -4 -4 -10z"/>
<path d="M8024 10325 c-3 -8 -1 -30 5 -48 13 -37 147 -205 200 -250 36 -30 93
-57 121 -57 25 0 99 -34 139 -64 41 -30 41 -30 41 -12 0 8 -41 56 -91 107 -50
52 -108 119 -129 149 -21 30 -48 65 -61 76 -23 20 -197 114 -212 114 -4 0 -10
-7 -13 -15z"/>
<path d="M11122 10315 c-105 -34 -195 -104 -272 -214 -25 -36 -69 -89 -99
-118 -56 -55 -52 -64 16 -39 59 21 148 46 166 46 8 0 33 21 54 46 21 25 61 71
88 102 94 106 125 149 125 171 0 24 -14 25 -78 6z"/>
<path d="M8523 10203 c-22 -8 -14 -48 16 -89 39 -54 76 -86 144 -123 65 -37
138 -44 165 -17 14 14 13 21 -14 73 -40 79 -90 115 -197 141 -90 23 -94 24
-114 15z"/>
<path d="M10536 10175 c-78 -28 -180 -135 -174 -184 3 -24 7 -26 60 -29 69 -4
94 7 206 89 63 46 82 66 82 84 0 51 -88 71 -174 40z"/>
<path d="M9173 10140 c-41 -9 -63 -27 -63 -50 0 -20 54 -70 75 -70 8 0 24 -11
37 -24 41 -43 190 -64 218 -31 24 28 -4 91 -56 128 -76 53 -132 66 -211 47z"/>
<path d="M9872 10119 c-59 -29 -122 -89 -122 -116 0 -8 13 -21 30 -32 32 -19
90 -21 188 -6 51 8 73 25 31 25 -31 0 -13 18 26 26 19 3 35 11 35 17 0 5 7 15
15 21 9 6 17 24 18 40 3 39 -29 56 -104 56 -42 0 -70 -7 -117 -31z"/>
<path d="M9535 9778 c-100 -36 -111 -86 -30 -131 44 -24 59 -27 125 -25 59 2
82 8 108 26 62 45 31 100 -73 127 -68 17 -88 18 -130 3z"/>
<path d="M10321 9060 c-19 -11 -6 -61 14 -54 8 4 21 1 29 -5 13 -11 26 -5 26
11 0 5 -12 13 -26 18 -14 6 -23 14 -19 19 8 14 -8 21 -24 11z"/>
<path d="M10291 9044 c0 -11 3 -14 6 -6 3 7 2 16 -1 19 -3 4 -6 -2 -5 -13z"/>
<path d="M10015 9040 c3 -5 8 -10 11 -10 2 0 4 5 4 10 0 6 -5 10 -11 10 -5 0
-7 -4 -4 -10z"/>
<path d="M10230 9030 c0 -5 5 -10 10 -10 6 0 10 5 10 10 0 6 -4 10 -10 10 -5
0 -10 -4 -10 -10z"/>
<path d="M10115 9020 c-3 -5 -1 -10 4 -10 6 0 11 5 11 10 0 6 -2 10 -4 10 -3
0 -8 -4 -11 -10z"/>
<path d="M9800 9000 c0 -5 7 -10 16 -10 8 0 12 5 9 10 -3 6 -10 10 -16 10 -5
0 -9 -4 -9 -10z"/>
<path d="M10330 8980 c0 -5 5 -10 11 -10 5 0 7 5 4 10 -3 6 -8 10 -11 10 -2 0
-4 -4 -4 -10z"/>
<path d="M10287 8970 c6 -7 9 -19 6 -26 -3 -8 0 -14 7 -14 16 0 8 43 -10 48
-12 3 -12 2 -3 -8z"/>
<path d="M10225 8960 c3 -5 8 -10 11 -10 2 0 4 5 4 10 0 6 -5 10 -11 10 -5 0
-7 -4 -4 -10z"/>
<path d="M9848 8913 c7 -3 16 -2 19 1 4 3 -2 6 -13 5 -11 0 -14 -3 -6 -6z"/>
<path d="M10233 8803 c-15 -5 -17 -33 -3 -33 6 0 10 -12 10 -26 0 -14 4 -23 9
-20 7 5 5 76 -2 82 -1 1 -8 -1 -14 -3z"/>
<path d="M10285 8779 c-4 -6 -5 -12 -2 -15 2 -3 7 2 10 11 7 17 1 20 -8 4z"/>
<path d="M10197 8764 c-8 -8 3 -34 14 -34 11 0 12 27 0 34 -4 3 -11 3 -14 0z"/>
<path d="M9260 3004 c-112 -8 -246 -26 -276 -39 -18 -7 -37 -21 -42 -31 -25
-46 34 -73 203 -95 141 -19 877 -19 960 -1 134 29 184 57 164 93 -14 27 -35
35 -139 54 -75 14 -169 18 -455 20 -198 1 -385 1 -415 -1z"/>
</g>
</svg>
